<?xml version="1.0" encoding="UTF-8"?>
<svg xmlns="http://www.w3.org/2000/svg" xmlns:xlink="http://www.w3.org/1999/xlink" width="48pt" height="48pt" viewBox="0 0 48 48" version="1.1">
<g id="surface1">
<path style=" stroke:none;fill-rule:nonzero;fill:#F44336;fill-opacity:1;" d="M 40 34 L 44 34 L 44 44 L 40 44 Z "/>
<path style=" stroke:none;fill-rule:nonzero;fill:#F44336;fill-opacity:1;" d="M 34 29 L 38 29 L 38 44 L 34 44 Z "/>
<path style=" stroke:none;fill-rule:nonzero;fill:#F44336;fill-opacity:1;" d="M 28 33 L 32 33 L 32 44 L 28 44 Z "/>
<path style=" stroke:none;fill-rule:nonzero;fill:#F44336;fill-opacity:1;" d="M 22 25 L 26 25 L 26 44 L 22 44 Z "/>
<path style=" stroke:none;fill-rule:nonzero;fill:#F44336;fill-opacity:1;" d="M 16 28 L 20 28 L 20 44 L 16 44 Z "/>
<path style=" stroke:none;fill-rule:nonzero;fill:#F44336;fill-opacity:1;" d="M 10 24 L 14 24 L 14 44 L 10 44 Z "/>
<path style=" stroke:none;fill-rule:nonzero;fill:#F44336;fill-opacity:1;" d="M 4 19 L 8 19 L 8 44 L 4 44 Z "/>
<path style=" stroke:none;fill-rule:nonzero;fill:#D32F2F;fill-opacity:1;" d="M 34 13.199219 L 30 17.199219 L 20 7.199219 L 15 12.199219 L 7.398438 4.601563 L 4.601563 7.398438 L 15 17.800781 L 20 12.800781 L 30 22.800781 L 34 18.800781 L 40.101563 24.898438 L 42.898438 22.101563 Z "/>
<path style=" stroke:none;fill-rule:nonzero;fill:#D32F2F;fill-opacity:1;" d="M 44 26 L 35 26 L 44 17 Z "/>
</g>
</svg>
