<?xml version="1.0" encoding="UTF-8"?>
<svg xmlns="http://www.w3.org/2000/svg" xmlns:xlink="http://www.w3.org/1999/xlink" width="48pt" height="48pt" viewBox="0 0 48 48" version="1.1">
<g id="surface1">
<path style=" stroke:none;fill-rule:nonzero;fill:#4CAF50;fill-opacity:1;" d="M 40 21 L 44 21 L 44 44 L 40 44 Z "/>
<path style=" stroke:none;fill-rule:nonzero;fill:#4CAF50;fill-opacity:1;" d="M 34 28 L 38 28 L 38 44 L 34 44 Z "/>
<path style=" stroke:none;fill-rule:nonzero;fill:#4CAF50;fill-opacity:1;" d="M 28 23 L 32 23 L 32 44 L 28 44 Z "/>
<path style=" stroke:none;fill-rule:nonzero;fill:#4CAF50;fill-opacity:1;" d="M 22 29 L 26 29 L 26 44 L 22 44 Z "/>
<path style=" stroke:none;fill-rule:nonzero;fill:#4CAF50;fill-opacity:1;" d="M 16 32 L 20 32 L 20 44 L 16 44 Z "/>
<path style=" stroke:none;fill-rule:nonzero;fill:#4CAF50;fill-opacity:1;" d="M 10 30 L 14 30 L 14 44 L 10 44 Z "/>
<path style=" stroke:none;fill-rule:nonzero;fill:#4CAF50;fill-opacity:1;" d="M 4 34 L 8 34 L 8 44 L 4 44 Z "/>
<path style=" stroke:none;fill-rule:nonzero;fill:#388E3C;fill-opacity:1;" d="M 40.101563 9.101563 L 34 15.199219 L 30 11.199219 L 20 21.199219 L 15 16.199219 L 4.601563 26.601563 L 7.398438 29.398438 L 15 21.800781 L 20 26.800781 L 30 16.800781 L 34 20.800781 L 42.898438 11.898438 Z "/>
<path style=" stroke:none;fill-rule:nonzero;fill:#388E3C;fill-opacity:1;" d="M 44 8 L 35 8 L 44 17 Z "/>
</g>
</svg>
