<?xml version="1.0" encoding="UTF-8"?>
<svg xmlns="http://www.w3.org/2000/svg" xmlns:xlink="http://www.w3.org/1999/xlink" width="50pt" height="50pt" viewBox="0 0 50 50" version="1.1">
<g id="surface1">
<path style=" stroke:none;fill-rule:nonzero;fill:#bababa;fill-opacity:1;" d="M 36.707031 3.96875 C 34.324219 3.96875 32.078125 4.898438 30.394531 6.585938 L 25.433594 11.542969 C 24 12.976563 23.113281 14.8125 22.878906 16.796875 C 22.839844 17.144531 22.816406 17.5 22.816406 17.855469 C 22.816406 19.214844 23.128906 20.523438 23.699219 21.714844 L 25.210938 20.199219 C 24.949219 19.453125 24.800781 18.667969 24.800781 17.855469 C 24.800781 16 25.527344 14.261719 26.835938 12.945313 L 31.796875 7.988281 C 33.109375 6.675781 34.851563 5.953125 36.707031 5.953125 C 38.5625 5.953125 40.300781 6.675781 41.617188 7.988281 C 42.929688 9.296875 43.652344 11.039063 43.652344 12.898438 C 43.652344 14.753906 42.925781 16.492188 41.617188 17.808594 L 36.65625 22.765625 C 35.34375 24.078125 33.601563 24.800781 31.746094 24.800781 C 30.9375 24.800781 30.148438 24.65625 29.40625 24.390625 L 27.890625 25.902344 C 29.078125 26.476563 30.390625 26.785156 31.746094 26.785156 C 34.128906 26.785156 36.375 25.855469 38.058594 24.167969 L 43.019531 19.210938 C 44.703125 17.523438 45.636719 15.28125 45.636719 12.898438 C 45.636719 10.511719 44.703125 8.269531 43.019531 6.585938 C 41.332031 4.898438 39.089844 3.96875 36.707031 3.96875 Z M 30.734375 17.84375 C 30.476563 17.851563 30.230469 17.960938 30.050781 18.148438 L 18.148438 30.050781 C 17.886719 30.300781 17.785156 30.671875 17.875 31.015625 C 17.964844 31.367188 18.238281 31.636719 18.585938 31.726563 C 18.929688 31.820313 19.300781 31.714844 19.550781 31.457031 L 31.457031 19.550781 C 31.75 19.265625 31.835938 18.828125 31.675781 18.453125 C 31.515625 18.074219 31.144531 17.832031 30.734375 17.84375 Z M 17.855469 22.816406 C 15.472656 22.816406 13.230469 23.746094 11.542969 25.433594 L 6.585938 30.394531 C 5.035156 31.945313 4.125 33.964844 3.984375 36.132813 C 3.972656 36.324219 3.96875 36.515625 3.96875 36.707031 C 3.96875 39.089844 4.898438 41.332031 6.585938 43.019531 C 8.269531 44.703125 10.511719 45.636719 12.898438 45.636719 C 15.28125 45.636719 17.523438 44.703125 19.210938 43.019531 L 24.167969 38.058594 C 25.855469 36.375 26.785156 34.128906 26.785156 31.746094 C 26.785156 30.390625 26.476563 29.078125 25.902344 27.890625 L 24.390625 29.40625 C 24.65625 30.148438 24.800781 30.9375 24.800781 31.746094 C 24.800781 33.601563 24.078125 35.34375 22.765625 36.65625 L 17.808594 41.617188 C 16.492188 42.925781 14.753906 43.652344 12.898438 43.652344 C 11.039063 43.652344 9.300781 42.925781 7.988281 41.617188 C 6.671875 40.304688 5.953125 38.5625 5.953125 36.707031 C 5.953125 34.851563 6.675781 33.109375 7.988281 31.796875 L 12.945313 26.835938 C 14.261719 25.527344 16 24.800781 17.855469 24.800781 C 18.667969 24.800781 19.453125 24.949219 20.199219 25.210938 L 21.714844 23.699219 C 20.523438 23.128906 19.214844 22.816406 17.855469 22.816406 Z "/>
</g>
</svg>
