<?xml version="1.0" encoding="UTF-8"?>
<svg xmlns="http://www.w3.org/2000/svg" xmlns:xlink="http://www.w3.org/1999/xlink" width="200pt" height="200pt" viewBox="0 0 200 200" version="1.1">
<g id="surface1">
<path style=" stroke:none;fill-rule:nonzero;fill:#B3B3B3;fill-opacity:1;" d="M 20 25 L 20 55 L 25 55 L 25 175 L 175 175 L 175 55 L 180 55 L 180 25 Z M 25 30 L 175 30 L 175 50 L 25 50 Z M 30 55 L 170 55 L 170 170 L 30 170 Z M 80 65 C 75.890625 65 72.5 68.390625 72.5 72.5 L 72.5 75 L 73.546875 75 C 74.648438 77.765625 76.855469 80 80 80 L 120 80 C 123.144531 80 125.351563 77.765625 126.453125 75 L 127.5 75 L 127.5 72.5 C 127.5 68.390625 124.109375 65 120 65 Z M 80 70 L 120 70 C 121.414063 70 122.5 71.085938 122.5 72.5 C 122.5 73.914063 121.414063 75 120 75 L 80 75 C 78.585938 75 77.5 73.914063 77.5 72.5 C 77.5 71.085938 78.585938 70 80 70 Z M 125 125 L 115 135 L 122.5 135 L 122.5 152.5 L 127.5 152.5 L 127.5 135 L 135 135 Z M 147.5 125 L 137.5 135 L 145 135 L 145 152.5 L 150 152.5 L 150 135 L 157.5 135 Z M 45 157.5 C 43.625 157.5 42.5 158.625 42.5 160 C 42.5 161.375 43.625 162.5 45 162.5 C 46.375 162.5 47.5 161.375 47.5 160 C 47.5 158.625 46.375 157.5 45 157.5 Z M 55 157.5 C 53.625 157.5 52.5 158.625 52.5 160 C 52.5 161.375 53.625 162.5 55 162.5 C 56.375 162.5 57.5 161.375 57.5 160 C 57.5 158.625 56.375 157.5 55 157.5 Z M 65 157.5 C 63.625 157.5 62.5 158.625 62.5 160 C 62.5 161.375 63.625 162.5 65 162.5 C 66.375 162.5 67.5 161.375 67.5 160 C 67.5 158.625 66.375 157.5 65 157.5 Z M 75 157.5 C 73.625 157.5 72.5 158.625 72.5 160 C 72.5 161.375 73.625 162.5 75 162.5 C 76.375 162.5 77.5 161.375 77.5 160 C 77.5 158.625 76.375 157.5 75 157.5 Z M 85 157.5 C 83.625 157.5 82.5 158.625 82.5 160 C 82.5 161.375 83.625 162.5 85 162.5 C 86.375 162.5 87.5 161.375 87.5 160 C 87.5 158.625 86.375 157.5 85 157.5 Z M 95 157.5 C 93.625 157.5 92.5 158.625 92.5 160 C 92.5 161.375 93.625 162.5 95 162.5 C 96.375 162.5 97.5 161.375 97.5 160 C 97.5 158.625 96.375 157.5 95 157.5 Z M 105 157.5 C 103.625 157.5 102.5 158.625 102.5 160 C 102.5 161.375 103.625 162.5 105 162.5 C 106.375 162.5 107.5 161.375 107.5 160 C 107.5 158.625 106.375 157.5 105 157.5 Z M 112.5 157.5 L 112.5 162.5 L 157.5 162.5 L 157.5 157.5 Z "/>
</g>
</svg>
