<?xml version="1.0" encoding="UTF-8"?>
<svg xmlns="http://www.w3.org/2000/svg" width="50pt" height="50pt" viewBox="0 0 50 50" version="1.1">
    <g id="surface1">
        <path style=" stroke:none;fill-rule:nonzero;fill:#fff;fill-opacity:1;"
              d="M 24.800781 0 C 22.621094 0 20.832031 1.785156 20.832031 3.96875 C 20.832031 4.480469 20.933594 4.976563 21.113281 5.425781 C 15.53125 6.875 11.90625 11.722656 11.90625 17.855469 C 11.90625 25.628906 10 29.164063 8.183594 31.15625 C 7.277344 32.152344 6.382813 32.757813 5.613281 33.328125 C 5.222656 33.609375 4.871094 33.894531 4.558594 34.257813 C 4.242188 34.621094 3.96875 35.140625 3.96875 35.714844 C 3.96875 37.078125 4.804688 38.238281 5.984375 39 C 7.160156 39.765625 8.707031 40.257813 10.570313 40.644531 C 12.988281 41.144531 15.972656 41.40625 19.253906 41.542969 C 19.003906 42.203125 18.847656 42.910156 18.847656 43.652344 C 18.847656 46.925781 21.527344 49.601563 24.800781 49.601563 C 28.074219 49.601563 30.753906 46.925781 30.753906 43.652344 C 30.753906 42.90625 30.601563 42.199219 30.351563 41.542969 C 33.628906 41.40625 36.613281 41.144531 39.03125 40.644531 C 40.894531 40.257813 42.441406 39.765625 43.621094 39 C 44.796875 38.238281 45.636719 37.078125 45.636719 35.714844 C 45.636719 35.140625 45.359375 34.621094 45.046875 34.257813 C 44.730469 33.894531 44.378906 33.609375 43.992188 33.328125 C 43.21875 32.757813 42.324219 32.152344 41.417969 31.15625 C 39.605469 29.164063 37.699219 25.628906 37.699219 17.855469 C 37.699219 11.726563 34.0625 6.882813 28.492188 5.425781 C 28.667969 4.976563 28.769531 4.480469 28.769531 3.96875 C 28.769531 1.785156 26.984375 0 24.800781 0 Z M 24.800781 1.984375 C 25.910156 1.984375 26.785156 2.859375 26.785156 3.96875 C 26.785156 5.078125 25.910156 5.953125 24.800781 5.953125 C 23.691406 5.953125 22.816406 5.078125 22.816406 3.96875 C 22.816406 2.859375 23.691406 1.984375 24.800781 1.984375 Z M 27.125 7.128906 C 32.417969 8.070313 35.714844 12.160156 35.714844 17.855469 C 35.714844 25.960938 37.777344 30.121094 39.929688 32.488281 C 41.007813 33.671875 42.097656 34.414063 42.8125 34.9375 C 43.171875 35.203125 43.4375 35.421875 43.558594 35.558594 C 43.679688 35.695313 43.652344 35.683594 43.652344 35.714844 C 43.652344 36.335938 43.363281 36.789063 42.535156 37.328125 C 41.707031 37.863281 40.355469 38.363281 38.628906 38.722656 C 35.171875 39.4375 30.25 39.683594 24.800781 39.683594 C 19.351563 39.683594 14.429688 39.4375 10.976563 38.722656 C 9.246094 38.363281 7.898438 37.863281 7.070313 37.328125 C 6.238281 36.789063 5.953125 36.335938 5.953125 35.714844 C 5.953125 35.683594 5.925781 35.695313 6.046875 35.558594 C 6.164063 35.421875 6.433594 35.203125 6.789063 34.9375 C 7.507813 34.414063 8.59375 33.671875 9.671875 32.488281 C 11.828125 30.121094 13.890625 25.960938 13.890625 17.855469 C 13.890625 12.164063 17.191406 8.105469 22.476563 7.160156 C 23.136719 7.644531 23.929688 7.9375 24.800781 7.9375 C 25.679688 7.9375 26.46875 7.621094 27.125 7.128906 Z M 21.390625 41.605469 C 22.503906 41.628906 23.636719 41.667969 24.800781 41.667969 C 25.96875 41.667969 27.097656 41.628906 28.210938 41.605469 C 28.566406 42.203125 28.769531 42.90625 28.769531 43.652344 C 28.769531 45.855469 27.007813 47.617188 24.800781 47.617188 C 22.597656 47.617188 20.832031 45.855469 20.832031 43.652344 C 20.832031 42.898438 21.03125 42.203125 21.390625 41.605469 Z "/>
    </g>
</svg>
