<?xml version="1.0" encoding="UTF-8"?>
<svg xmlns="http://www.w3.org/2000/svg" xmlns:xlink="http://www.w3.org/1999/xlink" width="50pt" height="50pt" viewBox="0 0 50 50" version="1.1">
<g id="surface1">
<path style=" stroke:none;fill-rule:nonzero;fill:#E0E0E0;fill-opacity:1;" d="M 39.0625 3.125 C 34.765625 3.125 31.25 6.640625 31.25 10.9375 C 31.25 11.472656 31.3125 11.988281 31.410156 12.5 L 17.25 18.871094 C 15.820313 16.917969 13.523438 15.625 10.9375 15.625 C 6.640625 15.625 3.125 19.140625 3.125 23.4375 C 3.125 27.734375 6.640625 31.25 10.9375 31.25 C 13.539063 31.25 15.855469 29.945313 17.273438 27.964844 L 31.445313 34.265625 C 31.324219 34.800781 31.25 35.363281 31.25 35.9375 C 31.25 40.234375 34.765625 43.75 39.0625 43.75 C 43.359375 43.75 46.875 40.234375 46.875 35.9375 C 46.875 31.640625 43.359375 28.125 39.0625 28.125 C 36.460938 28.125 34.144531 29.429688 32.726563 31.410156 L 18.554688 25.121094 C 18.675781 24.574219 18.75 24.011719 18.75 23.4375 C 18.75 22.851563 18.675781 22.277344 18.554688 21.726563 L 32.640625 15.355469 C 34.058594 17.40625 36.414063 18.75 39.0625 18.75 C 43.359375 18.75 46.875 15.234375 46.875 10.9375 C 46.875 6.640625 43.359375 3.125 39.0625 3.125 Z M 39.0625 6.25 C 41.675781 6.25 43.75 8.324219 43.75 10.9375 C 43.75 13.550781 41.675781 15.625 39.0625 15.625 C 36.449219 15.625 34.375 13.550781 34.375 10.9375 C 34.375 8.324219 36.449219 6.25 39.0625 6.25 Z M 10.9375 18.75 C 13.550781 18.75 15.625 20.824219 15.625 23.4375 C 15.625 26.050781 13.550781 28.125 10.9375 28.125 C 8.324219 28.125 6.25 26.050781 6.25 23.4375 C 6.25 20.824219 8.324219 18.75 10.9375 18.75 Z M 39.0625 31.25 C 41.675781 31.25 43.75 33.324219 43.75 35.9375 C 43.75 38.550781 41.675781 40.625 39.0625 40.625 C 36.449219 40.625 34.375 38.550781 34.375 35.9375 C 34.375 33.324219 36.449219 31.25 39.0625 31.25 Z "/>
</g>
</svg>
