<?xml version="1.0" encoding="UTF-8" standalone="no"?>
<svg
   xmlns:dc="http://purl.org/dc/elements/1.1/"
   xmlns:cc="http://creativecommons.org/ns#"
   xmlns:rdf="http://www.w3.org/1999/02/22-rdf-syntax-ns#"
   xmlns:svg="http://www.w3.org/2000/svg"
   xmlns="http://www.w3.org/2000/svg"
   xmlns:sodipodi="http://sodipodi.sourceforge.net/DTD/sodipodi-0.dtd"
   xmlns:inkscape="http://www.inkscape.org/namespaces/inkscape"
   viewBox="-46 0 512 512"
   version="1.1"
   id="svg3773"
   sodipodi:docname="stopwatch.svg"
   inkscape:version="0.92.3 (2405546, 2018-03-11)">
  <metadata
     id="metadata3779">
    <rdf:RDF>
      <cc:Work
         rdf:about="">
        <dc:format>image/svg+xml</dc:format>
        <dc:type
           rdf:resource="http://purl.org/dc/dcmitype/StillImage" />
      </cc:Work>
    </rdf:RDF>
  </metadata>
  <defs
     id="defs3777" />
  <sodipodi:namedview
     pagecolor="#ffffff"
     bordercolor="#666666"
     borderopacity="1"
     objecttolerance="10"
     gridtolerance="10"
     guidetolerance="10"
     inkscape:pageopacity="0"
     inkscape:pageshadow="2"
     inkscape:window-width="1366"
     inkscape:window-height="715"
     id="namedview3775"
     showgrid="false"
     inkscape:zoom="1"
     inkscape:cx="235.99861"
     inkscape:cy="245.5787"
     inkscape:window-x="-8"
     inkscape:window-y="-8"
     inkscape:window-maximized="1"
     inkscape:current-layer="svg3773" />
  <path
     d="m410 302c0 110.460938-89.539062 200-200 200s-200-89.539062-200-200c0-110.085938 89.144531-200 200-200 110.472656 0 200 89.53125 200 200zm0 0"
     id="path3747"
     style="fill:#ffffff"
     fill="#e87288" />
  <path
     d="m350 302c0 77.199219-62.796875 140-140 140-77.199219 0-140-62.796875-140-140 0-77.199219 62.796875-140 140-140 77.199219 0 140 62.796875 140 140zm0 0"
     id="path3749"
     fill="#fafaff" />
  <path
     d="m270 30v26c-15.128906 0-104.890625 0-120 0v-26c0-11.050781 8.949219-20 20-20h80c11.050781 0 20 8.949219 20 20zm0 0"
     id="path3751"
     style="fill:#ffffff"
     fill="#e87288" />
  <g
     id="g3759"
     style="fill:#ff3000;fill-opacity:0"
     fill="#424d63">
    <path
       d="m60 113.71875 29.011719 29.011719c-10.652344 8.097656-20.453125 17.238281-29.28125 27.28125l-28.011719-28.011719c-7.808594-7.808594-7.808594-20.46875 0-28.28125 7.8125-7.808594 20.472656-7.808594 28.28125 0zm0 0"
       id="path3753"
       style="fill:#ff3000;fill-opacity:0" />
    <path
       d="m180 56h60v48.230469h-60zm0 0"
       id="path3755"
       style="fill:#ff3000;fill-opacity:0" />
    <path
       d="m388.28125 113.71875c7.808594 7.8125 7.808594 20.472656 0 28.28125l-28.011719 28.011719c-8.828125-10.042969-18.628906-19.183594-29.28125-27.28125l29.011719-29.011719c7.808594-7.808594 20.46875-7.808594 28.28125 0zm0 0"
       id="path3757"
       style="fill:#ff3000;fill-opacity:0" />
  </g>
  <path
     d="m210 282c11.039062 0 20 8.960938 20 20s-8.960938 20-20 20-20-8.960938-20-20 8.960938-20 20-20zm0 0"
     id="path3761"
     style="fill:#ffffff"
     fill="#e87288" />
  <path
     d="m200 382c0 5.519531 4.480469 10 10 10s10-4.480469 10-10-4.480469-10-10-10-10 4.480469-10 10zm0 0"
     id="path3763"
     style="fill:#1ca2bd;fill-opacity:1" />
  <path
     d="m373.820312 170.601562 21.53125-21.53125c11.695313-11.695312 11.695313-30.726562 0-42.421874-11.695312-11.695313-30.730468-11.695313-42.421874 0l-22.984376 22.984374c-23.976562-16.699218-51.308593-28.257812-79.945312-33.804687v-29.828125h20c5.523438 0 10-4.476562 10-10v-26c0-16.542969-13.457031-30-30-30h-80c-16.542969 0-30 13.457031-30 30v26c0 5.523438 4.476562 10 10 10h20v29.828125c-28.632812 5.542969-55.96875 17.105469-79.945312 33.804687l-22.984376-22.984374c-11.695312-11.695313-30.726562-11.695313-42.421874 0-11.695313 11.695312-11.695313 30.726562 0 42.421874l21.527343 21.53125c-29.839843 37.167969-46.175781 83.464844-46.175781 131.398438 0 115.792969 94.207031 210 210 210s210-94.207031 210-210c0-47.933594-16.335938-94.230469-46.179688-131.398438zm-6.75-49.8125c3.898438-3.894531 10.242188-3.894531 14.140626 0 3.894531 3.898438 3.894531 10.242188 0 14.140626l-20.664063 20.660156c-4.65625-4.78125-9.539063-9.339844-14.617187-13.65625zm-207.070312-90.789062c0-5.515625 4.484375-10 10-10h80c5.515625 0 10 4.484375 10 10v16h-100zm70 36v26.945312c-13.257812-1.242187-26.738281-1.246093-40 0v-26.945312zm-191.210938 54.789062c3.898438-3.894531 10.242188-3.894531 14.140626 0l21.140624 21.144532c-5.078124 4.316406-9.960937 8.875-14.617187 13.65625l-20.664063-20.660156c-3.894531-3.898438-3.894531-10.242188 0-14.140626zm171.210938 371.210938c-104.765625 0-190-85.234375-190-190 0-46.214844 16.777344-90.742188 47.238281-125.386719 8.390625-9.539062 17.753907-18.261719 27.828125-25.925781 25.246094-19.210938 55.128906-31.855469 86.417969-36.570312 9.367187-1.402344 18.957031-2.117188 28.515625-2.117188s19.148438.714844 28.511719 2.117188c31.292969 4.714843 61.175781 17.359374 86.425781 36.570312 10.070312 7.664062 19.433594 16.386719 27.824219 25.925781 30.460937 34.644531 47.238281 79.171875 47.238281 125.386719 0 104.765625-85.234375 190-190 190zm0 0"
     id="path3765"
     style="fill:#666666" />
  <path
     d="m210 332c16.542969 0 30-13.457031 30-30 0-13.035156-8.359375-24.152344-20-28.28125v-71.71875c0-5.523438-4.476562-10-10-10s-10 4.476562-10 10v71.71875c-11.640625 4.128906-20 15.246094-20 28.28125 0 16.542969 13.457031 30 30 30zm0-40c5.515625 0 10 4.484375 10 10s-4.484375 10-10 10-10-4.484375-10-10 4.484375-10 10-10zm0 0"
     id="path3767"
     style="fill:#1ca2bd;fill-opacity:1" />
  <path
     d="m316.527344 196.496094c-.15625-.179688-.3125-.363282-.488282-.535156-.1875-.191407-.386718-.363282-.585937-.53125-17.625-17.441407-39.398437-30.34375-63.027344-37.320313-5.296875-1.570313-10.859375 1.460937-12.421875 6.757813-1.5625 5.296874 1.460938 10.859374 6.757813 12.421874 17.507812 5.171876 33.839843 14.109376 47.761719 26.042969l-6.746094 6.746094c-3.902344 3.90625-3.902344 10.238281 0 14.144531 1.953125 1.953125 4.511718 2.929688 7.074218 2.929688 2.558594 0 5.117188-.976563 7.070313-2.929688l6.761719-6.761718c18.09375 21.039062 28.839844 46.9375 30.933594 74.542968h-9.617188c-5.523438 0-10 4.476563-10 10 0 5.519532 4.476562 10 10 10h9.617188c-2.09375 27.601563-12.839844 53.5-30.933594 74.539063l-6.761719-6.761719c-3.90625-3.902344-10.238281-3.902344-14.144531 0-3.90625 3.90625-3.90625 10.238281 0 14.144531l6.761718 6.757813c-21.039062 18.09375-46.9375 28.84375-74.539062 30.9375v-9.621094c0-5.523438-4.476562-10-10-10s-10 4.476562-10 10v9.617188c-27.601562-2.09375-53.5-12.839844-74.539062-30.933594l6.761718-6.761719c3.90625-3.90625 3.90625-10.238281 0-14.144531-3.90625-3.902344-10.234375-3.902344-14.144531 0l-6.761719 6.761718c-18.09375-21.039062-28.839844-46.9375-30.933594-74.539062h9.617188c5.523438 0 10-4.480469 10-10 0-5.523438-4.476562-10-10-10h-9.617188c2.09375-27.605469 12.839844-53.503906 30.933594-74.542969l6.761719 6.761719c1.953125 1.953125 4.511719 2.929688 7.070313 2.929688 2.5625 0 5.121093-.976563 7.074218-2.929688 3.902344-3.90625 3.902344-10.238281 0-14.144531l-6.746094-6.746094c13.921876-11.933594 30.253907-20.871094 47.761719-26.039063 5.296875-1.566406 8.320313-7.128906 6.757813-12.425781s-7.125-8.320312-12.421875-6.757812c-23.882813 7.054687-45.875 20.148437-63.597657 37.871093-28.359374 28.363282-43.976562 66.015626-43.976562 106.023438 0 39.765625 15.4375 77.199219 43.472656 105.5.15625.183594.3125.367188.488282.539062.171874.171876.351562.328126.53125.484376 28.304687 28.039062 65.738281 43.476562 105.507812 43.476562 40.007812 0 77.660156-15.617188 106.019531-43.980469 28.363281-28.359375 43.980469-66.011719 43.980469-106.019531 0-39.765625-15.4375-77.203125-43.472656-105.503906zm0 0"
     id="path3769"
     style="fill:#666666" />
  <path
     d="m210 172c5.519531 0 10-4.480469 10-10s-4.480469-10-10-10-10 4.480469-10 10 4.480469 10 10 10zm0 0"
     id="path3771"
     style="fill:#1ca2bd;fill-opacity:1" />
</svg>
